# xmcd
# Copyright (C) 1995-1998 Ti Kan
#
# Track frame offsets:
#       150
#       19466
#       38363
#       58978
#       74590
#       92595
#       109537
#       133604
#       150206
#       172188
#       186534
#       204159
#       221138
#
# Disc length: 3205 seconds
#
# Revision: 2
# Processed by: cddbd v1.4PL0 Copyright (c) Steve Scherf et al.
# Submitted via: CD-Transfer v1.0
#
DISCID=b90c830d
DTITLE=Natacha - Kuss
DYEAR=2002
DGENRE=
TTITLE0=Isch Dr Tag
TTITLE1=Sorry Featuring Morris
TTITLE2=Gib Niemaus Auf
TTITLE3=Kuss
TTITLE4=Niemer Weis
TTITLE5=Maria
TTITLE6=Täich 7 Mau Na
TTITLE7=Mängisch
TTITLE8=I Liebe Di
TTITLE9=Täichsch No A Mi
TTITLE10=Irgendwie, Irgendwo,Irgendwann
TTITLE11=Havanna
TTITLE12=Sorry (Unplugged)
EXTD=
EXTT0=
EXTT1=
EXTT2=
EXTT3=
EXTT4=
EXTT5=
EXTT6=
EXTT7=
EXTT8=
EXTT9=
EXTT10=
EXTT11=
EXTT12=
PLAYORDER=
